<?xml version="1.0" encoding="utf-8"?>
<!-- Generator: Adobe Illustrator 26.4.1, SVG Export Plug-In . SVG Version: 6.00 Build 0)  -->
<svg version="1.1" id="Layer_1" xmlns="http://www.w3.org/2000/svg" xmlns:xlink="http://www.w3.org/1999/xlink" x="0px" y="0px"
	 viewBox="0 0 3905.1 521" style="enable-background:new 0 0 3905.1 521;" xml:space="preserve">
<style type="text/css">
	.st0{fill:#0F8980;}
</style>
<g>
	<g>
		<path class="st0" d="M222.1,102.9l-87.7,205.9h31.2l19.3-46.7h72l1.3,3.4L138.6,385c-2.7,2.7-2.7,7.2,0,9.9c1.4,1.4,3.2,2,4.9,2
			c1.8,0,3.6-0.7,4.9-2l116.4-116.4c0.6,6.2,2.1,11.6,4.6,16.3c3.3,6.2,7.7,11.4,13.2,15.6c5.5,4.3,11.5,7.8,18.1,10.7
			c6.5,2.9,12.8,5.5,18.7,7.9c6.2,2.4,11.8,5,17,8c5.2,3,9.4,6.4,12.6,10.3c3.3,3.9,4.9,8.7,4.9,14.3c0,7.1-1.8,12.7-5.4,16.8
			c-3.6,4.2-8.3,7.2-14,9.1c-5.7,1.9-11.3,2.9-16.7,2.9c-5.4,0-11.1-0.8-17-2.4c-5.9-1.6-11.6-3.8-17.3-6.5
			c-5.6-2.7-10.6-5.7-14.9-9l-14.1,24.4c6,4.3,12.5,8.1,19.6,11.1c7.1,3.1,14.5,5.5,22.4,7.3c7.9,1.8,16,2.7,24.3,2.7
			c13.8,0,25.6-2.6,35.6-7.7c10-5.2,17.5-11.9,22.7-20.4c5.2-8.4,7.7-17.9,7.7-28.4c0-9.2-1.4-17.2-4.2-23.8
			c-2.8-6.6-6.6-12-11.4-16.3c-4.8-4.3-10.1-7.9-15.9-10.9c-5.8-3-11.7-5.6-17.7-7.7c-6.9-2.7-13.4-5.6-19.6-8.6
			c-6.2-3-11.2-6.5-15.1-10.6c-3.9-4.1-5.8-8.8-5.8-14.3c0-7.6,2.8-13.6,8.4-17.9c5.6-4.3,13.3-6.5,23.1-6.5
			c7.2,0,14.8,1.3,22.8,3.9c8,2.6,15.5,5.8,22.5,9.6l12.2-24.2c-7.8-4.9-16.6-9-26.5-12.4c-9.4-3.2-20.5-4.8-33.5-5l78.3-78.3
			c2.7-2.7,2.7-7.2,0-9.9c-2.7-2.7-7.2-2.7-9.9,0L282.7,241L224,102.9H222.1z M195.8,235.4l25.8-62.5l24.7,62.5H195.8z"/>
		<g>
			<path class="st0" d="M271.5,504.8c-33.3,0-65.6-6.5-96-19.4c-29.4-12.4-55.8-30.2-78.4-52.9c-22.7-22.7-40.4-49-52.9-78.4
				c-12.9-30.4-19.4-62.7-19.4-96c0-29.1,5-57.7,15-84.8c9.6-26.2,23.5-50.5,41.4-72.1c17.7-21.4,38.7-39.6,62.4-54
				c24.2-14.7,50.5-25,78.2-30.7c0.8-0.2,1.7-0.3,2.6-0.3c6,0,11.3,4.3,12.5,10.2c0.7,3.3,0,6.7-1.8,9.6c-1.9,2.8-4.7,4.8-8.1,5.5
				C124.5,62.3,50.3,153.5,50.3,258.1c0,122,99.2,221.2,221.2,221.2c110.7,0,205-82.7,219.3-192.3c0.8-6.3,6.3-11.1,12.6-11.1
				c0.5,0,1.1,0,1.7,0.1c7,0.9,11.9,7.3,11,14.3c-7.7,58.9-36.5,113.1-81.2,152.6c-22.1,19.5-47.1,34.8-74.5,45.4
				C332,499.3,302.1,504.8,271.5,504.8z"/>
			<path class="st0" d="M491.2,190.7c-5.3,0-10.1-3.4-12-8.4C455.9,118.2,403,67.6,337.8,47c-3.2-1-5.9-3.3-7.5-6.3
				c-1.6-3-1.9-6.5-0.8-9.7c1.7-5.3,6.6-8.9,12.1-8.9c1.3,0,2.6,0.2,3.8,0.6c35.7,11.3,69,30.9,96.2,56.9
				c27.4,26.1,48.6,58.6,61.5,94c1.2,3.2,1,6.7-0.4,9.7s-4,5.4-7.2,6.6C494.1,190.5,492.7,190.7,491.2,190.7z"/>
		</g>
	</g>
	<g>
		<path class="st0" d="M829.9,423.9l-5.4-35.4c0-2-2-3.4-3.9-3.4h-98.9c-2,0-3.9,1.5-4.9,3.4l-13.8,35.4c-2,5.4-5.9,7.9-10.8,7.9
			h-77.8c-5.9,0-8.9-3.9-5.9-10.8L747.7,95.1c2-4.9,5.4-7.9,10.8-7.9H857c4.9,0,7.9,3,8.9,7.9L925.4,421c1,6.9-3,10.8-9.4,10.8
			h-77.3C833.9,431.8,830.4,429.3,829.9,423.9z M750.2,314.1h59.1c2.5,0,4.4-2,3.9-4.4L797,196c-1-3.4-3.4-3.4-4.9,0l-44.8,113.7
			C746.7,312.2,747.7,314.1,750.2,314.1z"/>
		<path class="st0" d="M1219.8,166.5H1081c-2.5,0-3.9,1.5-4.4,3.9l-5.4,43.3c0,2.5,1,3.9,3.4,3.9h85.2c5.4,0,8.4,3.4,7.9,9.4
			l-7.4,60c-1,5.9-4.4,9.4-10.3,9.4h-85.2c-2.5,0-3.9,1.5-3.9,3.9l-15.3,122.1c-0.5,5.9-4.4,9.4-10.3,9.4h-71.4
			c-5.9,0-8.9-3.4-7.9-9.4l39.9-325.8c1-5.9,4.4-9.4,10.3-9.4h223.5c5.4,0,8.4,3.4,7.9,9.4l-7.4,60.5
			C1229.1,163,1225.7,166.5,1219.8,166.5z"/>
		<path class="st0" d="M1220.2,422.4l39.9-325.8c1-5.9,4.4-9.4,10.3-9.4h68.4c4.9,0,8.4,2,10.3,6.4l74.3,162.9
			c1.5,3,4.4,2.5,4.9-1.5l18.7-158.5c1-6.4,4.4-9.4,10.3-9.4h71.9c5.4,0,8.4,3.4,7.9,9.4l-40.4,325.8c-0.5,5.9-4.4,9.4-9.8,9.4
			h-68.9c-4.9,0-8.4-2-10.3-6.4l-73.8-165.9c-1.5-3.4-4.4-3-4.9,1l-19.2,161.9c-0.5,6.4-4.4,9.4-10.3,9.4h-71.4
			C1222.2,431.8,1219.3,428.3,1220.2,422.4z"/>
		<path class="st0" d="M1749.4,423.9l-5.4-35.4c0-2-2-3.4-3.9-3.4h-98.9c-2,0-3.9,1.5-4.9,3.4l-13.8,35.4c-2,5.4-5.9,7.9-10.8,7.9
			h-77.8c-5.9,0-8.9-3.9-5.9-10.8l139.3-325.8c2-4.9,5.4-7.9,10.8-7.9h98.4c4.9,0,7.9,3,8.9,7.9l59.6,325.8c1,6.9-3,10.8-9.4,10.8
			h-77.3C1753.3,431.8,1749.9,429.3,1749.4,423.9z M1669.6,314.1h59.1c2.5,0,4.4-2,3.9-4.4L1716.4,196c-1-3.4-3.4-3.4-4.9,0
			l-44.8,113.7C1666.2,312.2,1667.2,314.1,1669.6,314.1z"/>
		<path class="st0" d="M1875.4,422.4l39.9-325.8c1-5.9,4.4-9.4,10.3-9.4h68.4c4.9,0,8.4,2,10.3,6.4l74.3,162.9
			c1.5,3,4.4,2.5,4.9-1.5l18.7-158.5c1-6.4,4.4-9.4,10.3-9.4h71.9c5.4,0,8.4,3.4,7.9,9.4L2152,422.4c-0.5,5.9-4.4,9.4-9.8,9.4h-68.9
			c-4.9,0-8.4-2-10.3-6.4l-73.8-165.9c-1.5-3.4-4.4-3-4.9,1l-19.2,161.9c-0.5,6.4-4.4,9.4-10.3,9.4h-71.4
			C1877.3,431.8,1874.4,428.3,1875.4,422.4z"/>
		<path class="st0" d="M2290.3,325.5l1-4.9c0.5-5.9,4.4-9.4,9.8-9.4h70.4c5.9,0,8.9,2,8.4,4.9l-0.5,5.4c-2,16.7,14.8,34.9,44.3,34.9
			c26.6,0,34.9-15.3,35.9-24.6c2.5-18.7-20.7-22.6-54.1-33.5c-42.8-13.8-106.3-39.9-97.5-110.7c7.9-63.5,66-104.3,137.3-104.3
			c74.8,0,127,45.8,118.6,114.2l-0.5,2.5c-0.5,5.9-4.4,9.4-9.8,9.4h-70.4c-5.9,0-8.9-1.5-8.4-3.9l0.5-3.9
			c2-17.7-12.3-38.9-43.3-38.9c-20.2,0-34,9.4-35.9,24.1c-2,17.7,14.8,25.1,62.5,41.3c31.5,10.8,100.4,27.1,91.1,101.4
			c-7.9,64.5-65.5,106.3-142.2,106.3C2329.2,435.7,2282.4,392.4,2290.3,325.5z"/>
		<path class="st0" d="M2579.7,305.8l11.3-92.5c9.8-77.8,69.4-129.9,149.6-129.9c80.7,0,128,52.2,118.1,129.9l-11.3,92.5
			c-9.4,79.2-69.4,131.9-150.1,131.9C2617.1,437.7,2569.9,385,2579.7,305.8z M2757.4,308.7l11.8-96.5c3.9-30-11.3-49.7-38.4-49.7
			c-26.1,0-46.3,19.7-49.7,49.7l-11.8,96.5c-3.9,30,11.3,49.7,37.9,49.7C2733.8,358.4,2753.9,338.8,2757.4,308.7z"/>
		<path class="st0" d="M3085.2,87.2h71.9c5.4,0,8.4,3.4,7.9,9.4l-39.9,325.8c-1,5.9-4.9,9.4-10.3,9.4h-71.9c-5.4,0-8.4-3.4-7.9-9.4
			l14.8-121.6c0.5-2.5-0.5-3.9-3-3.9h-71.9c-2.5,0-3.9,1.5-4.4,3.9l-14.8,121.6c-0.5,5.9-4.4,9.4-10.3,9.4H2874
			c-5.9,0-8.9-3.4-7.9-9.4L2906,96.6c1-5.9,4.4-9.4,10.3-9.4h71.4c5.9,0,8.9,3.4,7.9,9.4l-14.3,117.1c0,2.5,1,3.9,3.4,3.9h71.4
			c2.5,0,4.4-1.5,4.4-3.9l14.3-117.1C3075.8,90.7,3079.8,87.2,3085.2,87.2z"/>
		<path class="st0" d="M3373.1,423.9l-5.4-35.4c0-2-2-3.4-3.9-3.4h-98.9c-2,0-3.9,1.5-4.9,3.4l-13.8,35.4c-2,5.4-5.9,7.9-10.8,7.9
			h-77.8c-5.9,0-8.9-3.9-5.9-10.8l139.3-325.8c2-4.9,5.4-7.9,10.8-7.9h98.4c4.9,0,7.9,3,8.9,7.9l59.6,325.8c1,6.9-3,10.8-9.4,10.8
			H3382C3377.1,431.8,3373.6,429.3,3373.1,423.9z M3293.4,314.1h59.1c2.5,0,4.4-2,3.9-4.4L3340.1,196c-1-3.4-3.4-3.4-4.9,0
			l-44.8,113.7C3289.9,312.2,3290.9,314.1,3293.4,314.1z"/>
		<path class="st0" d="M3499.1,422.4L3539,96.6c1-5.9,4.4-9.4,10.3-9.4h71.4c5.9,0,8.9,3.4,7.9,9.4l-39.9,325.8
			c-0.5,5.9-4.4,9.4-10.3,9.4H3507C3501.1,431.8,3498.1,428.3,3499.1,422.4z"/>
		<path class="st0" d="M3626.1,422.4L3666,96.6c1-5.9,4.4-9.4,10.3-9.4h71.4c5.9,0,8.9,3.4,7.9,9.4l-30.5,252
			c-0.5,2.5,0.5,3.9,3,3.9h144.2c5.9,0,8.9,3.4,7.9,9.4l-7.4,60.5c-0.5,5.9-4.4,9.4-10.3,9.4H3634
			C3628.1,431.8,3625.1,428.3,3626.1,422.4z"/>
	</g>
</g>
</svg>
